{
	"asset":{
		"generator":"Khronos glTF Blender I/O v3.5.30",
		"version":"2.0"
	},
	"scene":0,
	"scenes":[
		{
			"name":"Scene",
			"nodes":[
				0
			]
		}
	],
	"nodes":[
		{
			"mesh":0,
			"name":"Cube"
		}
	],
	"materials":[
		{
			"doubleSided":true,
			"name":"Material",
			"pbrMetallicRoughness":{
				"baseColorFactor":[
					0.007217769976705313,
					0.8000000715255737,
					0.0043213581666350365,
					1
				],
				"metallicFactor":0,
				"roughnessFactor":0.5
			}
		},
		{
			"doubleSided":true,
			"name":"bow",
			"pbrMetallicRoughness":{
				"baseColorFactor":[
					0.8000000715255737,
					0,
					0.06053220480680466,
					1
				],
				"metallicFactor":0,
				"roughnessFactor":0.5
			}
		}
	],
	"meshes":[
		{
			"name":"Cube",
			"primitives":[
				{
					"attributes":{
						"POSITION":0,
						"TEXCOORD_0":1,
						"NORMAL":2
					},
					"indices":3,
					"material":0
				},
				{
					"attributes":{
						"POSITION":4,
						"TEXCOORD_0":5,
						"NORMAL":6
					},
					"indices":7,
					"material":1
				}
			]
		}
	],
	"accessors":[
		{
			"bufferView":0,
			"componentType":5126,
			"count":445,
			"max":[
				1,
				2,
				1
			],
			"min":[
				-1,
				0,
				-1
			],
			"type":"VEC3"
		},
		{
			"bufferView":1,
			"componentType":5126,
			"count":445,
			"type":"VEC2"
		},
		{
			"bufferView":2,
			"componentType":5126,
			"count":445,
			"type":"VEC3"
		},
		{
			"bufferView":3,
			"componentType":5123,
			"count":1752,
			"type":"SCALAR"
		},
		{
			"bufferView":4,
			"componentType":5126,
			"count":562,
			"max":[
				1.0282256603240967,
				2.4745006561279297,
				1.0282256603240967
			],
			"min":[
				-1.0282256603240967,
				-0.028225718066096306,
				-1.0282256603240967
			],
			"type":"VEC3"
		},
		{
			"bufferView":5,
			"componentType":5126,
			"count":562,
			"type":"VEC2"
		},
		{
			"bufferView":6,
			"componentType":5126,
			"count":562,
			"type":"VEC3"
		},
		{
			"bufferView":7,
			"componentType":5123,
			"count":2304,
			"type":"SCALAR"
		}
	],
	"bufferViews":[
		{
			"buffer":0,
			"byteLength":5340,
			"byteOffset":0,
			"target":34962
		},
		{
			"buffer":0,
			"byteLength":3560,
			"byteOffset":5340,
			"target":34962
		},
		{
			"buffer":0,
			"byteLength":5340,
			"byteOffset":8900,
			"target":34962
		},
		{
			"buffer":0,
			"byteLength":3504,
			"byteOffset":14240,
			"target":34963
		},
		{
			"buffer":0,
			"byteLength":6744,
			"byteOffset":17744,
			"target":34962
		},
		{
			"buffer":0,
			"byteLength":4496,
			"byteOffset":24488,
			"target":34962
		},
		{
			"buffer":0,
			"byteLength":6744,
			"byteOffset":28984,
			"target":34962
		},
		{
			"buffer":0,
			"byteLength":4608,
			"byteOffset":35728,
			"target":34963
		}
	],
	"buffers":[
		{
			"byteLength":40336,
			"uri":"data:application/octet-stream;base64,"
		}
	]
}
