{
	"asset":{
		"generator":"Khronos glTF Blender I/O v3.5.30",
		"version":"2.0"
	},
	"scene":0,
	"scenes":[
		{
			"name":"Scene",
			"nodes":[
				0
			]
		}
	],
	"nodes":[
		{
			"mesh":0,
			"name":"Snowman"
		}
	],
	"materials":[
		{
			"doubleSided":true,
			"name":"Snow",
			"pbrMetallicRoughness":{
				"baseColorTexture":{
					"index":0
				},
				"metallicFactor":0,
				"roughnessFactor":0.5
			}
		}
	],
	"meshes":[
		{
			"name":"Cube.001",
			"primitives":[
				{
					"attributes":{
						"POSITION":0,
						"TEXCOORD_0":1,
						"NORMAL":2
					},
					"indices":3,
					"material":0
				}
			]
		}
	],
	"textures":[
		{
			"sampler":0,
			"source":0
		}
	],
	"images":[
		{
			"bufferView":4,
			"mimeType":"image/png",
			"name":"Snowman_Texture"
		}
	],
	"accessors":[
		{
			"bufferView":0,
			"componentType":5126,
			"count":3633,
			"max":[
				2.1792798042297363,
				5.73821496963501,
				1.5331207513809204
			],
			"min":[
				-2.1792798042297363,
				-0.0035767555236816406,
				-1.424400806427002
			],
			"type":"VEC3"
		},
		{
			"bufferView":1,
			"componentType":5126,
			"count":3633,
			"type":"VEC2"
		},
		{
			"bufferView":2,
			"componentType":5126,
			"count":3633,
			"type":"VEC3"
		},
		{
			"bufferView":3,
			"componentType":5123,
			"count":19344,
			"type":"SCALAR"
		}
	],
	"bufferViews":[
		{
			"buffer":0,
			"byteLength":43596,
			"byteOffset":0,
			"target":34962
		},
		{
			"buffer":0,
			"byteLength":29064,
			"byteOffset":43596,
			"target":34962
		},
		{
			"buffer":0,
			"byteLength":43596,
			"byteOffset":72660,
			"target":34962
		},
		{
			"buffer":0,
			"byteLength":38688,
			"byteOffset":116256,
			"target":34963
		},
		{
			"buffer":0,
			"byteLength":546514,
			"byteOffset":154944
		}
	],
	"samplers":[
		{
			"magFilter":9729,
			"minFilter":9987
		}
	],
	"buffers":[
		{
			"byteLength":701460,
			"uri":"data:application/octet-stream;base64,"
		}
	]
}
